<svg xmlns="http://www.w3.org/2000/svg">


   <symbol id="ChevronDown" viewBox="0 0 15 8">
      <path fill-rule="evenodd" clip-rule="evenodd"
         d="M0.169473 0.167835C0.223058 0.114634 0.286715 0.0724241 0.356797 0.0436241C0.426879 0.0148241 0.50201 0 0.577887 0C0.653763 0 0.728894 0.0148241 0.798977 0.0436241C0.869059 0.0724241 0.932716 0.114634 0.9863 0.167835L7.50015 6.6199L14.014 0.167835C14.0676 0.11472 14.1313 0.0725863 14.2014 0.0438404C14.2715 0.0150945 14.3466 0.000299105 14.4224 0.000299105C14.4983 0.000299105 14.5734 0.0150945 14.6434 0.0438404C14.7135 0.0725863 14.7772 0.11472 14.8308 0.167835C14.8845 0.220951 14.927 0.284008 14.956 0.353407C14.9851 0.422806 15 0.497187 15 0.572304C15 0.64742 14.9851 0.721802 14.956 0.791201C14.927 0.860599 14.8845 0.923656 14.8308 0.976772L7.90857 7.83216C7.85498 7.88537 7.79132 7.92758 7.72124 7.95638C7.65116 7.98518 7.57603 8 7.50015 8C7.42428 8 7.34914 7.98518 7.27906 7.95638C7.20898 7.92758 7.14532 7.88537 7.09174 7.83216L0.169473 0.976772C0.115753 0.923705 0.0731311 0.860663 0.0440502 0.791258C0.0149692 0.721852 0 0.647447 0 0.572304C0 0.49716 0.0149692 0.422755 0.0440502 0.35335C0.0731311 0.283944 0.115753 0.220903 0.169473 0.167835Z" />
   </symbol>

   <symbol id="minus" viewBox="0 0 12 2">
      <path
         d="M0 0.75C0 0.551088 0.0790178 0.360322 0.21967 0.21967C0.360322 0.0790178 0.551088 0 0.75 0H11.25C11.4489 0 11.6397 0.0790178 11.7803 0.21967C11.921 0.360322 12 0.551088 12 0.75C12 0.948912 11.921 1.13968 11.7803 1.28033C11.6397 1.42098 11.4489 1.5 11.25 1.5H0.75C0.551088 1.5 0.360322 1.42098 0.21967 1.28033C0.0790178 1.13968 0 0.948912 0 0.75Z"/>
   </symbol>

   <symbol id="plus" viewBox="0 0 12 12">
      <path fill-rule="evenodd" clip-rule="evenodd"
         d="M6 0C6.13261 0 6.25979 0.0526785 6.35355 0.146447C6.44732 0.240215 6.5 0.367392 6.5 0.5V5.5H11.5C11.6326 5.5 11.7598 5.55268 11.8536 5.64645C11.9473 5.74021 12 5.86739 12 6C12 6.13261 11.9473 6.25979 11.8536 6.35355C11.7598 6.44732 11.6326 6.5 11.5 6.5H6.5V11.5C6.5 11.6326 6.44732 11.7598 6.35355 11.8536C6.25979 11.9473 6.13261 12 6 12C5.86739 12 5.74021 11.9473 5.64645 11.8536C5.55268 11.7598 5.5 11.6326 5.5 11.5V6.5H0.5C0.367392 6.5 0.240215 6.44732 0.146447 6.35355C0.0526785 6.25979 0 6.13261 0 6C0 5.86739 0.0526785 5.74021 0.146447 5.64645C0.240215 5.55268 0.367392 5.5 0.5 5.5H5.5V0.5C5.5 0.367392 5.55268 0.240215 5.64645 0.146447C5.74021 0.0526785 5.86739 0 6 0Z"/>
   </symbol>

   <symbol id="btnDeleteItem" viewBox="0 0 19 22" >
      <path
         d="M5.90625 7.90625C6.09687 7.90625 6.27969 7.98198 6.41448 8.11677C6.54927 8.25156 6.625 8.43438 6.625 8.625V17.25C6.625 17.4406 6.54927 17.6234 6.41448 17.7582C6.27969 17.893 6.09687 17.9688 5.90625 17.9688C5.71563 17.9688 5.53281 17.893 5.39802 17.7582C5.26323 17.6234 5.1875 17.4406 5.1875 17.25V8.625C5.1875 8.43438 5.26323 8.25156 5.39802 8.11677C5.53281 7.98198 5.71563 7.90625 5.90625 7.90625ZM9.5 7.90625C9.69062 7.90625 9.87344 7.98198 10.0082 8.11677C10.143 8.25156 10.2188 8.43438 10.2188 8.625V17.25C10.2188 17.4406 10.143 17.6234 10.0082 17.7582C9.87344 17.893 9.69062 17.9688 9.5 17.9688C9.30938 17.9688 9.12656 17.893 8.99177 17.7582C8.85698 17.6234 8.78125 17.4406 8.78125 17.25V8.625C8.78125 8.43438 8.85698 8.25156 8.99177 8.11677C9.12656 7.98198 9.30938 7.90625 9.5 7.90625ZM13.8125 8.625C13.8125 8.43438 13.7368 8.25156 13.602 8.11677C13.4672 7.98198 13.2844 7.90625 13.0938 7.90625C12.9031 7.90625 12.7203 7.98198 12.5855 8.11677C12.4507 8.25156 12.375 8.43438 12.375 8.625V17.25C12.375 17.4406 12.4507 17.6234 12.5855 17.7582C12.7203 17.893 12.9031 17.9688 13.0938 17.9688C13.2844 17.9688 13.4672 17.893 13.602 17.7582C13.7368 17.6234 13.8125 17.4406 13.8125 17.25V8.625Z"
         />
      <path fill-rule="evenodd" clip-rule="evenodd"
         d="M18.8438 4.3125C18.8438 4.69375 18.6923 5.05938 18.4227 5.32897C18.1531 5.59855 17.7875 5.75 17.4062 5.75H16.6875V18.6875C16.6875 19.45 16.3846 20.1813 15.8454 20.7204C15.3063 21.2596 14.575 21.5625 13.8125 21.5625H5.1875C4.425 21.5625 3.69374 21.2596 3.15457 20.7204C2.6154 20.1813 2.3125 19.45 2.3125 18.6875V5.75H1.59375C1.2125 5.75 0.846867 5.59855 0.577284 5.32897C0.3077 5.05938 0.15625 4.69375 0.15625 4.3125V2.875C0.15625 2.49375 0.3077 2.12812 0.577284 1.85853C0.846867 1.58895 1.2125 1.4375 1.59375 1.4375H6.625C6.625 1.05625 6.77645 0.690618 7.04603 0.421034C7.31562 0.15145 7.68125 0 8.0625 0H10.9375C11.3187 0 11.6844 0.15145 11.954 0.421034C12.2235 0.690618 12.375 1.05625 12.375 1.4375H17.4062C17.7875 1.4375 18.1531 1.58895 18.4227 1.85853C18.6923 2.12812 18.8438 2.49375 18.8438 2.875V4.3125ZM3.91963 5.75L3.75 5.83481V18.6875C3.75 19.0687 3.90145 19.4344 4.17103 19.704C4.44062 19.9735 4.80625 20.125 5.1875 20.125H13.8125C14.1937 20.125 14.5594 19.9735 14.829 19.704C15.0985 19.4344 15.25 19.0687 15.25 18.6875V5.83481L15.0804 5.75H3.91963ZM1.59375 4.3125V2.875H17.4062V4.3125H1.59375Z"
         />
   </symbol>

</svg>